# xmcd
#
# Track frame offsets: 
#        150
#        18825
#        45900
#        59792
#        83547
#        102115
#        129212
#        162270
#        182432
#        202275
#        220547
#        238215
#        255850
#
# Disc length: 3919 seconds
#
# Revision: 2
# Processed by: cddbd v1.5.1PL2 Copyright (c) Steve Scherf et al.
# Submitted via: ExactAudioCopy v0.90b4
#
DISCID=9f0f4d0d
DTITLE=Paul Personne - Anthologie 1983-1997 CD3÷3
DYEAR=1999
DGENRE=Blues
TTITLE0=La p'tite à côté d'moi
TTITLE1=Pleure pas
TTITLE2=À bientôt
TTITLE3=Nuits blanches étoilées
TTITLE4=Le rôle... on l'a d'jà !
TTITLE5=General Lee
TTITLE6=Serenity Street
TTITLE7=Quelqu'un appelle
TTITLE8=T'arrêtes pas d'me manquer
TTITLE9=Vagabondage
TTITLE10=Plus jamais m'laisser blueser
TTITLE11=Funambule déprim'
TTITLE12=Le bourdon
EXTD=YEAR: 1999
EXTT0=
EXTT1=
EXTT2=
EXTT3=
EXTT4=
EXTT5=
EXTT6=
EXTT7=
EXTT8=
EXTT9=
EXTT10=
EXTT11=
EXTT12=
PLAYORDER=
